<svg viewBox="0 0 24 24" fill="none" xmlns="http://www.w3.org/2000/svg"><g transform="scale(.5)"><circle cx="24" cy="24" r="20" fill="#91BEFF"/><path fill-rule="evenodd" clip-rule="evenodd" d="M22.638 34.9111c-.942-.1334-1.4871-.9684-1.5212-1.9192-.0412-1.1455-.088-3.0403-.1075-6.0012-2.9609-.0195-4.8557-.0663-6.0012-.1075-.9508-.0341-1.7858-.5792-1.9192-1.5212C13.0361 24.989 13 24.5375 13 24c0-.5375.0361-.989.0889-1.362.1334-.942.9684-1.4871 1.9192-1.5212 1.1455-.0412 3.0403-.088 6.0012-.1075.0195-2.9609.0663-4.8557.1075-6.0012.0341-.9508.5792-1.7858 1.5212-1.9192C23.011 13.0361 23.4625 13 24 13c.5375 0 .989.0361 1.362.0889.942.1334 1.4871.9684 1.5212 1.9192.0412 1.1455.088 3.0403.1075 6.0012 2.9609.0195 4.8557.0663 6.0012.1075.9508.0341 1.7858.5792 1.9192 1.5212.0528.373.0889.8245.0889 1.362 0 .5375-.0361.989-.0889 1.362-.1334.942-.9684 1.4871-1.9192 1.5212-1.1455.0412-3.0403.088-6.0012.1075-.0195 2.9609-.0663 4.8557-.1075 6.0012-.0341.9508-.5792 1.7858-1.5212 1.9192-.373.0528-.8245.0889-1.362.0889-.5375 0-.989-.0361-1.362-.0889Z" fill="#1F78F0"/></g></svg>