<svg viewBox="0 0 24 24" fill="none" xmlns="http://www.w3.org/2000/svg"><g transform="scale(.5)"><circle cx="24" cy="24" r="20" fill="#91BEFF"/><path fill-rule="evenodd" clip-rule="evenodd" d="M34.5127 15.9406c.8424.6 1.0879 1.7481.5523 2.6329-4.1555 6.8647-7.9366 11.4322-10.171 13.877-1.2018 1.3151-3.1342 1.4837-4.4969.3364-1.9455-1.6381-4.8048-4.4192-7.5411-8.4699-.5158-.7635-.404-1.7813.2387-2.4414l1.6475-1.6924c.7671-.7878 2.028-.8095 2.8016-.0281 2.7244 2.7522 4.8374 5.2477 4.8374 5.2477s3.1048-4.6355 7.9264-10.2558c.6664-.7768 1.8161-.9082 2.6497-.3144l1.5554 1.108Z" fill="#1F78F0"/></g></svg>