<svg viewBox="0 0 24 24" fill="none" xmlns="http://www.w3.org/2000/svg"><g transform="scale(.5)"><circle cx="24" cy="24" r="20" fill="#91BEFF"/><path fill-rule="evenodd" clip-rule="evenodd" d="M28.6006 14.2441c.7797-.7097 1.9724-.6711 2.7179.0745l1.1202 1.1202c.7455.7455.7842 1.9381.0744 2.7178-1.0565 1.1607-2.7274 2.9652-4.7997 5.0978 2.1709 2.228 3.9204 4.1166 5.0129 5.3169.7098.7797.6711 1.9723-.0744 2.7178l-1.1202 1.1202c-.7455.7456-1.9382.7842-2.7179.0745-1.1997-1.0921-3.0872-2.8405-5.3139-5.01-2.2267 2.1695-4.1142 3.9179-5.3139 5.01-.7797.7097-1.9723.6711-2.7179-.0745l-1.1202-1.1202c-.7455-.7455-.7841-1.9381-.0744-2.7178 1.0926-1.2003 2.842-3.0889 5.0129-5.3169-2.0723-2.1326-3.7431-3.9371-4.7997-5.0978-.7097-.7797-.6711-1.9723.0744-2.7178l1.1202-1.1202c.7456-.7456 1.9382-.7842 2.7179-.0745 1.1612 1.0571 2.9669 2.729 5.1007 4.8026 2.1339-2.0736 3.9395-3.7455 5.1007-4.8026Z" fill="#1F78F0"/></g></svg>