<svg viewBox="0 0 24 24" fill="none" xmlns="http://www.w3.org/2000/svg"><g transform="scale(.5)"><circle cx="24" cy="24" r="22" fill="#91BEFF"/><path d="M16.9594 9.44755c-.545-.74038-1.5695-.71421-2.345-.22048C9.73615 12.3328 6.5 17.7885 6.5 24c0 9.6649 7.835 17.5 17.5 17.5S41.5 33.6649 41.5 24c0-6.2115-3.2362-11.6672-8.1144-14.77293-.7755-.49373-1.8-.5199-2.345.22048-.2041.27721-.3978.62415-.5406 1.05245-.1488.4464-.2363.8609-.2858 1.2229-.1219.891.4437 1.6577 1.169 2.1895C34.4857 16.1869 36.5 19.8582 36.5 24c0 6.9035-5.5964 12.5-12.5 12.5S11.5 30.9035 11.5 24c0-4.1418 2.0143-7.8131 5.1168-10.0876.7253-.5318 1.2909-1.2985 1.169-2.1895-.0495-.362-.137-.7765-.2858-1.2229-.1428-.4283-.3365-.77524-.5406-1.05245Z" fill="#1F78F0"/><path d="M26.8832 8.0081c-.0341-.95082-.5792-1.78575-1.5212-1.91917C24.989 6.03611 24.5375 6 24 6c-.5375 0-.989.03611-1.362.08893-.942.13342-1.4871.96835-1.5212 1.91917C21.0632 9.5004 21 12.2641 21 17c0 4.7359.0632 7.4996.1168 8.9919.0341.9508.5792 1.7858 1.5212 1.9192.373.0528.8245.0889 1.362.0889.5375 0 .989-.0361 1.362-.0889.942-.1334 1.4871-.9684 1.5212-1.9192C26.9368 24.4996 27 21.7359 27 17c0-4.7359-.0632-7.4996-.1168-8.9919Z" fill="#1F78F0"/></g></svg>