<svg viewBox="0 0 24 24" fill="none" xmlns="http://www.w3.org/2000/svg"><g transform="scale(.5)"><circle cx="24" cy="24" r="20" fill="#91BEFF"/><path d="M15.0081 21.1168c-.9508.0341-1.7858.5792-1.9192 1.5212C13.0361 23.011 13 23.4625 13 24c0 .5375.0361.989.0889 1.362.1334.942.9684 1.4871 1.9192 1.5212C16.5004 26.9368 19.2641 27 24 27c4.7359 0 7.4996-.0632 8.9919-.1168.9508-.0341 1.7858-.5792 1.9192-1.5212.0528-.373.0889-.8245.0889-1.362 0-.5375-.0361-.989-.0889-1.362-.1334-.942-.9684-1.4871-1.9192-1.5212C31.4996 21.0632 28.7359 21 24 21c-4.7359 0-7.4996.0632-8.9919.1168Z" fill="#1F78F0"/></g></svg>