<?xml version="1.0" encoding="utf-8"?>
<!DOCTYPE svg PUBLIC "-//W3C//DTD SVG 1.1//EN" "http://www.w3.org/Graphics/SVG/1.1/DTD/svg11.dtd">
<svg version="1.1" id="layer" xmlns="http://www.w3.org/2000/svg" xmlns:xlink="http://www.w3.org/1999/xlink" x="0px" y="0px"
	 width="59.723px" height="58.152px" viewBox="0 0 59.723 58.152" enable-background="new 0 0 59.723 58.152" xml:space="preserve">
<path d="M51.22,58.027c0.026,0,0.046,0,0.076,0c0.177,0,0.312-0.034,0.481-0.034c2.438,0.074,4.396-0.55,5.798-1.905
	c0.093-0.052,0.179-0.1,0.261-0.162c0.063-0.086,0.115-0.194,0.196-0.309c0.071-0.075,0.137-0.18,0.206-0.29
	c0.16-0.188,0.313-0.375,0.439-0.573c0.063-0.103,0.117-0.201,0.178-0.308c0.146-0.294,0.271-0.599,0.367-0.897
	c0.3-0.866,0.479-1.78,0.49-2.836c0.022-0.197,0-0.402-0.012-0.641c0-0.089,0-0.205,0-0.315c-0.01-0.246-0.01-0.49-0.041-0.731
	c-0.031-0.126-0.074-0.246-0.074-0.384c-0.063-0.251-0.103-0.529-0.146-0.799c-0.092-0.462-0.208-0.908-0.333-1.397
	c-0.205-0.714-0.439-1.474-0.729-2.26c-0.084-0.162-0.167-0.355-0.242-0.531c-0.033-0.074-0.053-0.143-0.07-0.19
	c-0.034-0.069-0.063-0.129-0.098-0.167c-0.069-0.208-0.133-0.394-0.215-0.577c-0.037-0.05-0.037-0.068-0.037-0.068
	c-0.071-0.153-0.115-0.269-0.162-0.395c-0.044-0.104-0.098-0.205-0.133-0.302c-0.116-0.257-0.285-0.525-0.413-0.775
	c-0.05-0.144-0.155-0.293-0.217-0.459c-0.036-0.095-0.088-0.146-0.124-0.223c-0.109-0.238-0.24-0.451-0.335-0.696
	c-0.061-0.083-0.085-0.16-0.126-0.246c-0.061-0.107-0.115-0.203-0.195-0.319c0.135-0.246,0.236-0.453,0.33-0.694
	c2.532-6.575,1.827-14.273-0.33-19.715c0.063-0.123,0.112-0.232,0.162-0.348c0.033-0.026,0.033-0.043,0.044-0.067
	c0.124-0.257,0.241-0.48,0.366-0.733c0.02-0.048,0.03-0.068,0.039-0.1c0.026-0.047,0.045-0.059,0.074-0.116
	c0.085-0.167,0.904-1.907,1.075-2.26c0.098-0.25,0.196-0.487,0.294-0.707c0.008-0.057,0.018-0.093,0.037-0.116
	c0.089-0.179,0.149-0.358,0.233-0.551c0.042-0.072,0.042-0.134,0.092-0.186c0.063-0.282,0.146-0.506,0.239-0.746
	c0.146-0.432,0.28-0.874,0.398-1.281c0.229-0.854,0.374-1.661,0.483-2.41c0.036-0.26,0.062-0.51,0.079-0.765
	c0.031-0.104,0-0.228,0-0.327c0.031-0.226,0.031-0.438,0.031-0.665c0-0.116,0-0.209,0-0.313c0-0.198,0-0.425-0.031-0.604
	c-0.106-0.78-0.28-1.479-0.521-2.158c-0.124-0.267-0.233-0.567-0.367-0.832c-0.052-0.106-0.133-0.185-0.188-0.296
	c-0.123-0.175-0.363-0.614-1.031-1.269C56.565,1.04,54.829,0,51.975,0c-0.043,0-1.915,0.16-2.059,0.19
	c-0.593,0.092-1.184,0.221-1.795,0.367c-1.425,0.364-2.96,0.888-4.607,1.6c-0.269,0.121-0.521,0.239-0.794,0.363
	c-0.261,0.111-0.551,0.229-0.81,0.369c-0.172,0.089-0.336,0.153-0.514,0.227c-0.122,0.059-0.239,0.122-0.33,0.16
	c-0.611-0.233-1.203-0.469-1.838-0.726c-6.705-2.39-14.292-2.144-20.847,0.692c-0.125-0.075-0.244-0.127-0.369-0.171
	c-0.176-0.093-0.378-0.182-0.573-0.265c-0.259-0.118-0.555-0.256-0.814-0.37c-0.271-0.125-0.548-0.248-0.812-0.357
	c-1.479-0.634-2.86-1.086-4.17-1.414c-0.837-0.201-1.606-0.342-2.363-0.439C9.12,0.214,8.993,0.214,8.833,0.19
	c-0.091,0-0.146,0-0.227,0c-0.168,0-0.322-0.047-0.473-0.047c-0.092,0-0.153-0.009-0.245-0.009c-0.062,0-0.151-0.024-0.213-0.024
	c-0.075,0-0.152,0.024-0.251,0.024C4.541,0.19,2.839,1.336,1.901,2.301C1.845,2.365,1.797,2.447,1.729,2.52
	C1.573,2.688,1.45,2.888,1.335,3.07c-0.08,0.097-0.158,0.171-0.231,0.278c-0.125,0.2-0.238,0.437-0.361,0.691
	c-0.062,0.105-0.086,0.264-0.14,0.367c-0.119,0.3-0.27,0.605-0.331,0.928C0.134,5.863,0.034,6.404,0.009,6.993
	c-0.03,0.202,0.024,0.426,0.024,0.629c0,0.112,0,0.229,0,0.326c0,0.222,0,0.425,0,0.675c0,0.125,0.029,0.235,0.029,0.374
	c0.052,0.262,0.104,0.561,0.154,0.828c0.1,0.673,0.266,1.374,0.464,2.101c0.102,0.321,0.185,0.649,0.298,0.998
	c0.084,0.238,0.17,0.476,0.262,0.731c0.014,0.04,0.041,0.089,0.041,0.154c0.083,0.173,0.168,0.38,0.242,0.561
	c0.03,0.033,0.03,0.062,0.049,0.103c0.052,0.159,0.125,0.322,0.188,0.48c0.14,0.321,0.26,0.673,0.411,1.021
	c0.08,0.181,0.196,0.389,0.298,0.55c0,0.051,0.041,0.087,0.041,0.154c0.128,0.213,0.254,0.465,0.362,0.692
	c0.088,0.208,0.182,0.403,0.296,0.595c0.035,0.081,0.086,0.167,0.108,0.271c0.1,0.118,0.132,0.217,0.187,0.35
	c-0.107,0.241-0.187,0.539-0.295,0.823c-2.366,6.547-2.2,13.605,0.45,20.069c-0.052,0.122-0.116,0.241-0.182,0.364l0,0
	c-0.06,0.143-0.16,0.281-0.217,0.438c-0.115,0.238-0.23,0.479-0.362,0.722v0.034c-0.121,0.222-0.249,0.46-0.348,0.662
	c-0.041,0.1-0.087,0.194-0.143,0.269c-0.116,0.246-0.196,0.471-0.293,0.69c-0.009,0.013-0.009,0.013-0.009,0.013
	c-0.114,0.264-0.191,0.451-0.269,0.665c0,0-0.012,0.06-0.036,0.091c-0.103,0.249-0.207,0.479-0.289,0.738
	c-0.389,0.985-0.708,1.954-0.952,2.856c0,0.07-0.037,0.188-0.037,0.262c-0.089,0.23-0.089,0.426-0.151,0.634
	c-0.016,0.141-0.053,0.28-0.053,0.41c-0.062,0.281-0.112,0.557-0.145,0.821c0,0.119-0.019,0.264-0.019,0.381
	c-0.052,0.229-0.036,0.426-0.052,0.662c-0.029,0.692,0.052,1.362,0.125,1.968c0.06,0.435,0.145,0.846,0.295,1.261
	c0.037,0.153,0.119,0.282,0.173,0.429c0.126,0.285,0.21,0.599,0.38,0.857c0.046,0.108,0.14,0.185,0.205,0.307
	c0.124,0.165,0.258,0.37,0.384,0.53c0.136,0.137,0.22,0.315,0.349,0.475c1.346,1.361,3.205,2.051,5.45,2.114
	c0.099,0,0.176,0.021,0.251,0.021c0.089,0,0.17-0.021,0.231-0.021c0.074,0,0.166-0.019,0.227-0.031c0.151,0,0.305-0.008,0.473-0.032
	c0.081-0.019,0.136-0.019,0.227-0.019c0.16-0.014,0.304-0.021,0.472-0.056c0.696-0.08,1.456-0.23,2.232-0.413
	c1.65-0.39,3.445-1.035,5.373-1.931c0.271-0.132,0.55-0.268,0.845-0.399c0.259-0.147,0.502-0.205,0.769-0.36
	c0,0,0.031-0.027,0.064-0.029c0.075-0.047,0.145-0.076,0.217-0.114c0.458,0.266,0.941,0.415,1.422,0.636
	c2.825,0.994,5.77,1.531,8.716,1.586c0.125,0,0.276,0,0.419,0c0.155,0,0.304,0.036,0.45,0.036c0.028,0,0.068,0,0.103,0
	c0.115,0,0.229,0.01,0.349,0.01c1.06-0.046,2.103-0.101,3.154-0.248c0.729-0.063,1.455-0.199,2.174-0.354
	c0.174-0.036,0.35-0.088,0.548-0.104c0.632-0.152,1.24-0.319,1.852-0.507c0.595-0.184,1.217-0.408,1.802-0.64
	c0.072-0.021,0.188-0.059,0.258-0.088c0.319-0.121,0.615-0.211,0.919-0.347c0.126,0.058,0.209,0.107,0.331,0.163
	c0.174,0.079,0.337,0.155,0.486,0.213c0.26,0.129,0.539,0.261,0.808,0.362c1.984,0.92,3.833,1.604,5.541,2.019
	c0.23,0.053,0.483,0.145,0.697,0.191c0.026,0,0.044,0.026,0.064,0.026c0.024,0,0.054,0.002,0.054,0.002c0.042,0,0.042,0,0.063,0
	c0.312,0.06,0.579,0.06,0.904,0.14c0.144,0,0.293,0.055,0.461,0.055c0.071,0.016,0.17,0.016,0.195,0.026
	c0.172,0.004,0.346,0.058,0.483,0.058C51.13,57.981,51.157,58.027,51.22,58.027z M50.448,55.327
	c-0.145-0.026-0.315-0.046-0.459-0.077c-1.372-0.238-2.917-0.68-4.531-1.325c-0.281-0.109-0.558-0.224-0.817-0.337
	c-0.262-0.108-0.532-0.225-0.782-0.338c-4.193-1.884-9.021-4.896-13.979-8.836c-5.105,4.028-10.008,7.114-14.224,9.005
	c-0.29,0.13-0.54,0.234-0.802,0.326c-0.26,0.132-0.554,0.263-0.815,0.356c-1.76,0.683-3.392,1.13-4.839,1.336
	c-0.159,0.01-0.283,0.01-0.457,0.023c-0.055,0.004-0.136,0.004-0.208,0.004c-0.151,0.015-0.329,0.051-0.493,0.053
	c-0.061,0-0.135,0.024-0.215,0.024c-0.171,0-0.304-0.026-0.463-0.026c-1.468-0.068-2.635-0.471-3.452-1.33
	c-1.053-1.061-1.362-2.701-1.146-4.755c0.143-1.41,0.592-3.001,1.293-4.786c0.145-0.339,0.304-0.685,0.45-1.048
	c0.033-0.063,0.071-0.158,0.134-0.245c0.062-0.167,0.145-0.318,0.217-0.487l0,0c0,0,0-0.032,0.024-0.067
	c0.02-0.04,0.062-0.127,0.09-0.196v-0.022c0.459-0.904,0.922-1.875,1.508-2.859c-0.494,1.711-0.763,3.113-0.888,4.392
	c-0.063,0.526-0.085,1.004-0.085,1.457c0.022,1.688,0.396,2.91,1.135,3.666c0.108,0.098,0.233,0.178,0.333,0.259
	c0.176,0.121,0.387,0.302,0.601,0.389c0.079,0.036,0.17,0.036,0.269,0.103c0.167,0.056,0.331,0.11,0.538,0.165
	c0.169,0.023,0.397,0.048,0.61,0.07c0.312,0.033,0.685,0.049,1.008,0.033c0.314-0.033,0.617-0.08,0.94-0.122
	c3.939-0.719,9.605-4.01,15.53-8.519c-1.535-1.311-3.09-2.702-4.642-4.185c-8.175-7.852-14.307-16.05-17.289-22.518v-0.03
	c-0.053-0.134-0.078-0.242-0.14-0.353c-0.123-0.297-0.262-0.605-0.373-0.872c-0.096-0.239-0.221-0.463-0.274-0.676
	c-0.238-0.602-0.397-1.163-0.585-1.724c-0.101-0.316-0.156-0.625-0.241-0.954c-0.089-0.454-0.19-0.907-0.246-1.336
	C2.61,8.335,2.595,7.752,2.62,7.195c0.08-1.272,0.449-2.331,1.188-3.098C4.61,3.242,5.802,2.813,7.26,2.736
	c0.164,0,0.316-0.025,0.477-0.025c0.089,0,0.169,0.025,0.243,0.025c0.153,0,0.304,0.012,0.458,0.042c0.053,0,0.168,0.014,0.25,0.014
	C8.823,2.806,8.97,2.806,9.12,2.813c1.165,0.164,2.436,0.482,3.834,0.958c0.269,0.104,0.543,0.183,0.818,0.298
	c0.247,0.095,0.528,0.212,0.787,0.304c1.21,0.499,2.422,1.041,3.77,1.753c-2.082-0.518-3.77-0.768-5.197-0.792
	c-0.439,0-0.853,0.021-1.221,0.03c-0.601,0.05-1.104,0.198-1.543,0.324c-1.023,0.375-1.733,0.985-2.125,1.81v0.075L8.176,7.752
	c0.009-0.018,0.009-0.018,0.009-0.018c-0.144,0.397-0.261,0.821-0.278,1.32c-0.019,0.339,0,0.648,0.042,0.997
	c0.761,6.805,11.074,19.524,21.745,28.983c10.61-8.813,20.996-20.696,22.592-27.709c0.083-0.29,0.191-0.941,0.219-1.371
	c0.075-1.207-0.187-2.15-0.947-2.994c-0.01-0.01-0.21-0.18-0.311-0.266c-0.19-0.162-0.359-0.27-0.577-0.377
	c-0.536-0.314-1.126-0.505-1.859-0.634c-1.306-0.23-2.043-0.146-2.447-0.146c-1.479,0.027-3.286,0.278-5.425,0.781
	c1.336-0.736,2.598-1.334,3.809-1.857c0.138-0.052,0.251-0.085,0.366-0.139c0.064-0.017,0.103-0.039,0.163-0.072
	c0.083-0.022,0.183-0.084,0.26-0.104c0.28-0.105,0.543-0.219,0.809-0.321c2.574-0.996,5.45-1.192,5.6-1.192
	c1.645-0.02,2.991,0.439,3.88,1.352c0.519,0.547,0.874,1.256,1.03,2.055c0.105,0.39,0.155,0.84,0.155,1.295
	c0.035,0.269,0,0.601-0.02,0.88c-0.03,0.678-0.165,1.417-0.34,2.195c-0.035,0.138-0.065,0.265-0.091,0.396
	c-0.016,0.036-0.016,0.08-0.029,0.11c-0.102,0.454-0.318,1.627-1.72,4.511c-3.094,6.363-9.012,14.347-16.921,22.002
	c-1.58,1.553-3.241,3.017-4.902,4.44c5.45,4.403,10.728,7.746,14.64,8.756c0.324,0.077,0.593,0.128,0.897,0.192
	c0.286,0.063,0.612,0.131,0.881,0.138c0.44,0.024,0.835,0.024,1.24-0.043c0.161-0.027,0.339-0.061,0.513-0.106
	c0.089-0.027,0.15-0.056,0.229-0.091c0.19-0.042,0.391-0.11,0.557-0.197c0.073-0.055,0.164-0.096,0.237-0.135
	c0.239-0.162,0.482-0.369,0.671-0.587c0.424-0.441,0.718-1.075,0.916-1.863c0.217-0.84,0.354-1.856,0.27-3.12
	c-0.021-0.396-0.107-0.838-0.144-1.23c-0.154-1.284-0.387-2.666-0.845-4.301c0.592,1.001,1.104,1.953,1.559,2.91
	c0.016,0.022,0.021,0.044,0.049,0.067c0.051,0.107,0.11,0.209,0.153,0.312c0.009,0.032,0.055,0.102,0.097,0.188
	c0.028,0.107,0.102,0.253,0.164,0.376c0.024,0.042,0.033,0.095,0.063,0.11v0.005c0.022,0.049,0.033,0.087,0.051,0.132
	c0.021,0.025,0.045,0.059,0.045,0.059c0.448,1.038,0.845,2.022,1.142,2.934c0.252,0.859,0.453,1.648,0.588,2.407
	c0.05,0.414,0.138,0.874,0.157,1.269c0.021,0.623,0,1.199-0.107,1.721c-0.155,0.914-0.519,1.711-1.104,2.333
	c-0.919,0.943-2.317,1.363-4.048,1.346c-0.176,0-0.314-0.047-0.486-0.047c-0.075,0-0.151,0-0.214-0.008
	c-0.154-0.011-0.322-0.011-0.488-0.011C50.618,55.363,50.547,55.327,50.448,55.327z"/>
</svg>
