<svg viewBox="0 0 24 24" fill="none" xmlns="http://www.w3.org/2000/svg"><path d="M22 12c0 5.52285-4.47715 10-10 10S2 17.52285 2 12 6.47715 2 12 2s10 4.47715 10 10Z" fill="#1F78F0"/><path d="M17 12c0 2.7614-2.2386 5-5 5s-5-2.2386-5-5 2.2386-5 5-5 5 2.2386 5 5Z" fill="#91BEFF"/><path fill-rule="evenodd" clip-rule="evenodd" d="M5.76355 19.81755C6.9223 17.5514 9.27995 16 11.99995 16c2.72005 0 5.0777 1.5514 6.23645 3.8176C16.5265 21.18345 14.3586 22 12 22c-2.35865 0-4.52655-.81655-6.23645-2.18245Z" fill="#91BEFF"/></svg>