<svg viewBox="0 0 24 24" fill="none" xmlns="http://www.w3.org/2000/svg"><path d="M2 12c0 5.52285 4.47715 10 10 10s10-4.47715 10-10S17.52285 2 12 2 2 6.47715 2 12Z" fill="#1F78F0"/><path fill-rule="evenodd" clip-rule="evenodd" d="M12 18c-3.3137 0-6-2.6863-6-6 0-.92355.20865-1.7983.5814-2.5798L5.663 6.7986c-.13855-.3955.2417-.77575.6372-.6372l2.38605.8359C9.63575 6.3671 10.775 6 12 6s2.36425.3671 3.31375.9973l2.3861-.8359c.3955-.13855.77575.2417.6372.6372l-.91845 2.6216C17.79135 10.2017 18 11.07645 18 12c0 3.3137-2.6863 6-6 6Z" fill="#91BEFF"/><path fill-rule="evenodd" clip-rule="evenodd" d="M17.4135 20.40945C15.8532 21.4159 13.9948 22 12 22c-1.9948 0-3.8532-.5841-5.41345-1.59055C7.5534 18.39265 9.61405 17 12 17c2.38595 0 4.4466 1.39265 5.4135 3.40945Z" fill="#91BEFF"/><path fill-rule="evenodd" clip-rule="evenodd" d="M10.5 13.5c.27615 0 .5.22385.5.5 0 .5523.4477 1 1 1s1-.4477 1-1c0-.27615.22385-.5.5-.5s.5.22385.5.5c0 1.10455-.89545 2-2 2-1.10455 0-2-.89545-2-2 0-.27615.22385-.5.5-.5ZM15.7983 11.76325c-.2667.0715-.5409-.0868-.61235-.35355-.14295-.53345-.6913-.85005-1.22475-.7071-.26675.07145-.5409-.0868-.61235-.35355-.0715-.26675.0868-.5409.35355-.6124 1.0669-.28585 2.1636.3473 2.44945 1.41425.0715.2667-.0868.5409-.35355.61235ZM8.2017 11.76325c.2667.0715.5409-.0868.61235-.35355.14295-.53345.6913-.85005 1.22475-.7071.26675.07145.5409-.0868.61235-.35355.0715-.26675-.0868-.5409-.35355-.6124-1.0669-.28585-2.1636.3473-2.44945 1.41425-.0715.2667.0868.5409.35355.61235Z" fill="#1F78F0"/></svg>