<svg viewBox="0 0 24 24" fill="none" xmlns="http://www.w3.org/2000/svg"><path d="M22 12c0 5.52285-4.47715 10-10 10S2 17.52285 2 12 6.47715 2 12 2s10 4.47715 10 10Z" fill="#1F78F0"/><path fill-rule="evenodd" clip-rule="evenodd" d="M12.5 4.25c0-.27614-.22385-.5-.5-.5s-.5.22386-.5.5V6.02055C8.42025 6.2746 6 8.85465 6 12c0 3.3137 2.6863 6 6 6s6-2.6863 6-6c0-3.14535-2.42025-5.7254-5.5-5.97945V4.25Z" fill="#91BEFF"/><path fill-rule="evenodd" clip-rule="evenodd" d="M17.4135 20.40945C15.8532 21.4159 13.9948 22 12 22c-1.9948 0-3.8532-.5841-5.41345-1.59055C7.5534 18.39265 9.61405 17 12 17c2.38595 0 4.4466 1.39265 5.4135 3.40945Z" fill="#91BEFF"/><path fill-rule="evenodd" clip-rule="evenodd" d="M10.5 13.5c.27615 0 .5.22385.5.5 0 .5523.4477 1 1 1s1-.4477 1-1c0-.27615.22385-.5.5-.5s.5.22385.5.5c0 1.10455-.89545 2-2 2-1.10455 0-2-.89545-2-2 0-.27615.22385-.5.5-.5Z" fill="#1F78F0"/><path d="M8.5 11c0-.5012.38675-.916.8874-.9393C10.0177 10.0313 10.9384 10 12 10s1.9823.0313 2.6126.0607c.50065.0233.8874.4381.8874.9393 0 .5012-.38675.916-.8874.9393C13.9823 11.9687 13.0616 12 12 12s-1.9823-.0313-2.6126-.0607C8.88675 11.916 8.5 11.5012 8.5 11Z" fill="#1F78F0"/></svg>