<svg viewBox="0 0 24 24" fill="none" xmlns="http://www.w3.org/2000/svg"><path d="M22 12c0 5.52285-4.47715 10-10 10S2 17.52285 2 12 6.47715 2 12 2s10 4.47715 10 10Z" fill="#1F78F0"/><path fill-rule="evenodd" clip-rule="evenodd" d="M9.204 3.982935c.1471-.394235.68565-.441575.89925-.07904l1.255 2.130055C11.5691 6.0115 11.7832 6 12 6c.2623 0 .52065.01685.77405.0495l1.2641-2.145605c.2136-.36253.7522-.315195.89925.07904l.9464 2.536765 1.0097-.39445c.3541-.1383.72695.1535.67775.53045l-.3187 2.44185C17.72885 9.9577 18 10.9472 18 12c0 3.3137-2.6863 6-6 6s-6-2.6863-6-6c0-1.0528.27115-2.0423.74745-2.90245l-.3187-2.44185c-.0492-.37695.32365-.66875.67775-.53045l1.13315.44265.96435-2.584965Z" fill="#91BEFF"/><path fill-rule="evenodd" clip-rule="evenodd" d="M17.4135 20.40945C15.8532 21.4159 13.9948 22 12 22c-1.9948 0-3.8532-.5841-5.41345-1.59055C7.5534 18.39265 9.61405 17 12 17c2.38595 0 4.4466 1.39265 5.4135 3.40945Z" fill="#91BEFF"/><path fill-rule="evenodd" clip-rule="evenodd" d="M10.5 13.5c.27615 0 .5.22385.5.5 0 .5523.4477 1 1 1s1-.4477 1-1c0-.27615.22385-.5.5-.5s.5.22385.5.5c0 1.10455-.89545 2-2 2-1.10455 0-2-.89545-2-2 0-.27615.22385-.5.5-.5Z" fill="#1F78F0"/><path d="M10.0519 11.671c-.3777.37775-.99015.37775-1.3679 0-.37775-.37775-.37775-.9902 0-1.36795.4041-.40405 1.772.96385 1.3679 1.36795ZM15.17195 10.32425c.35845.38425.33755.98635-.0467 1.3448-.38425.35845-.98635.33755-1.3448-.0467-.37395-.40085 1.01755-1.69895 1.3915-1.2981Z" fill="#1F78F0"/></svg>