<svg viewBox="0 0 24 24" fill="none" xmlns="http://www.w3.org/2000/svg"><path d="M22 12c0 5.52285-4.47715 10-10 10S2 17.52285 2 12 6.47715 2 12 2s10 4.47715 10 10Z" fill="#1F78F0"/><path fill-rule="evenodd" clip-rule="evenodd" d="M16.44355 6.6326c.36475.0203.7274-.16065.92255-.49865.27615-.4783.11225-1.0899-.36605-1.36602-.4783-.27614-1.08985-.112265-1.366.36602-.19515.338-.17055.74255.02945 1.04825l-.39655.78435C14.3269 6.35515 13.20495 6 12 6c-1.20495 0-2.3269.35515-3.26695.96655L8.3365 6.1822c.2-.3057.2246-.71025.02945-1.04825-.27615-.478285-.8877-.64216-1.366-.36602-.4783.27612-.6422.88772-.36605 1.36602.19515.338.5578.51895.92255.49865l.53365.81615C6.8104 8.5491 6 10.1799 6 12c0 3.3137 2.6863 6 6 6s6-2.6863 6-6c0-1.8201-.8104-3.4509-2.0901-4.55125l.53365-.81615Z" fill="#91BEFF"/><path fill-rule="evenodd" clip-rule="evenodd" d="M17.4135 20.40945C15.8532 21.4159 13.9948 22 12 22c-1.9948 0-3.8532-.5841-5.41345-1.59055C7.5534 18.39265 9.61405 17 12 17c2.38595 0 4.4466 1.39265 5.4135 3.40945Z" fill="#91BEFF"/><path fill-rule="evenodd" clip-rule="evenodd" d="M10.5 13.5c.27615 0 .5.22385.5.5 0 .5523.4477 1 1 1s1-.4477 1-1c0-.27615.22385-.5.5-.5s.5.22385.5.5c0 1.10455-.89545 2-2 2-1.10455 0-2-.89545-2-2 0-.27615.22385-.5.5-.5ZM12 12c1.10455 0 2-.89545 2-2 0-1.10455-.89545-2-2-2-1.10455 0-2 .89545-2 2 0 1.10455.89545 2 2 2Zm.5-2c.27615 0 .5-.22385.5-.5s-.22385-.5-.5-.5-.5.22385-.5.5.22385.5.5.5Z" fill="#1F78F0"/></svg>