<svg viewBox="0 0 24 24" fill="none" xmlns="http://www.w3.org/2000/svg"><path d="M22 12c0 5.52285-4.47715 10-10 10S2 17.52285 2 12 6.47715 2 12 2s10 4.47715 10 10Z" fill="#1F78F0"/><path d="M18 12c0 3.3137-2.6863 6-6 6s-6-2.6863-6-6 2.6863-6 6-6 6 2.6863 6 6Z" fill="#91BEFF"/><path fill-rule="evenodd" clip-rule="evenodd" d="M17.4135 20.40945C15.8532 21.4159 13.9948 22 12 22c-1.9948 0-3.8532-.5841-5.41345-1.59055C7.5534 18.39265 9.61405 17 12 17c2.38595 0 4.4466 1.39265 5.4135 3.40945Z" fill="#91BEFF"/><path d="M12 15.5c1.0353 0 1.9236-.6293 2.30325-1.52625C14.51855 13.46515 14.0523 13 13.5 13h-3c-.5523 0-1.01855.46515-.80325.97375C10.0764 14.8707 10.9647 15.5 12 15.5ZM10 10.75c0 .4142-.3358.75-.75.75s-.75-.3358-.75-.75.3358-.75.75-.75.75.3358.75.75ZM15.5 10.75c0 .4142-.3358.75-.75.75s-.75-.3358-.75-.75.3358-.75.75-.75.75.3358.75.75Z" fill="#1F78F0"/></svg>