<svg viewBox="0 0 24 24" fill="none" xmlns="http://www.w3.org/2000/svg"><g transform="scale(.5)"><path d="M20.1195 36.824c.0338.7696.3574 1.5026 1.0807 1.7676.5895.216 1.484.4084 2.7998.4084 1.3158 0 2.2103-.1924 2.7998-.4084.7233-.265 1.0469-.998 1.0807-1.7676C27.9347 35.5926 28 33.2302 28 29s-.0653-6.5926-.1195-7.824c-.0338-.7696-.3574-1.5026-1.0807-1.7676C26.2103 19.1924 25.3158 19 24 19c-1.3158 0-2.2103.1924-2.7998.4084-.7233.265-1.0469.998-1.0807 1.7676C20.0653 22.4074 20 24.7698 20 29s.0653 6.5926.1195 7.824ZM32.1195 36.824c.0338.7696.3574 1.5026 1.0807 1.7676.5895.216 1.484.4084 2.7998.4084 1.3158 0 2.2103-.1924 2.7998-.4084.7233-.265 1.0469-.998 1.0807-1.7676C39.9347 35.5926 40 33.2302 40 29s-.0653-6.5926-.1195-7.824c-.0338-.7696-.3574-1.5026-1.0807-1.7676C38.2103 19.1924 37.3158 19 36 19c-1.3158 0-2.2103.1924-2.7998.4084-.7233.265-1.0469.998-1.0807 1.7676C32.0653 22.4074 32 24.7698 32 29s.0653 6.5926.1195 7.824ZM8.11949 36.824c.03384.7696.35736 1.5026 1.08068 1.7676C9.78972 38.8076 10.6842 39 12 39s2.2103-.1924 2.7998-.4084c.7233-.265 1.0469-.998 1.0807-1.7676C15.9347 35.5926 16 33.2302 16 29s-.0653-6.5926-.1195-7.824c-.0338-.7696-.3574-1.5026-1.0807-1.7676C14.2103 19.1924 13.3158 19 12 19c-1.3158 0-2.21028.1924-2.79983.4084-.72332.265-1.04684.998-1.08068 1.7676C8.06535 22.4074 8 24.7698 8 29s.06535 6.5926.11949 7.824Z" fill="#1F78F0"/><path d="M24 21.5c9.4077 0 14.9546-.2038 17.7361-.3511C43.0234 21.0807 44 20.0154 44 18.7262v-2.3376c0-.8994-.2898-1.7818-.9268-2.4168C39.3366 10.247 30.7493 5.44649 24.93 4.1762c-.6149-.13423-1.2451-.13423-1.86 0-5.8193 1.27029-14.40659 6.0708-18.14321 9.7956C4.28979 14.6068 4 15.4892 4 16.3886v2.3376c0 1.2892.97659 2.3545 2.2639 2.4227C9.04542 21.2962 14.5923 21.5 24 21.5ZM4.3574 37.4573c.25986-.7544 1.01515-1.0975 1.8118-1.1427C8.23823 36.1971 13.3034 36 24 36s15.7618.1971 17.8308.3146c.7967.0452 1.5519.3883 1.8118 1.1427C43.8351 38.0163 44 38.835 44 40s-.1649 1.9837-.3574 2.5427c-.2599.7544-1.0152 1.0975-1.8118 1.1427C39.7618 43.8029 34.6966 44 24 44s-15.76177-.1971-17.8308-.3146c-.79665-.0452-1.55194-.3883-1.8118-1.1427C4.16486 41.9837 4 41.165 4 40s.16486-1.9837.3574-2.5427Z" fill="#91BEFF"/><circle cx="24" cy="14" r="4" fill="#1F78F0"/></g></svg>