<svg viewBox="0 0 24 24" fill="none" xmlns="http://www.w3.org/2000/svg"><g transform="scale(.5)"><circle cx="24" cy="24" r="20" fill="#91BEFF"/><path fill-rule="evenodd" clip-rule="evenodd" d="M19.8999 14.7019v-1.7768c0-.4447.2932-.8476.735-.898.1561-.0178.3121-.0271.465-.0271.5286 0 .9072.1081 1.1357.3242.2429.2162.3643.6069.3643 1.1722v.955c.3319-.0126.6688-.0189 1.0108-.0189.2702 0 .5333.0054.7892.0163v-1.5237c0-.4447.2932-.8476.735-.898.1561-.0178.3121-.0271.465-.0271.5286 0 .9072.1081 1.1358.3242.2428.2162.3642.6069.3642 1.1722v1.3345c.7393.1985 1.3814.4712 1.9264.818 1.2743.7916 1.9114 2.0272 1.9114 3.7069 0 .8689-.2317 1.6218-.695 2.259-.4441.6371-1.1198 1.1487-2.0273 1.5349 1.1198.3668 1.9597.9171 2.5196 1.6507.5599.7337.8399 1.6025.8399 2.6065 0 1.8342-.6661 3.1953-1.9983 4.0834-.6729.4486-1.4984.7839-2.4767 1.0059v2.587c0 .4057-.245.779-.6432.8563-.1964.0381-.3918.0605-.5568.0605-.5285 0-.9142-.1524-1.1571-.4573-.2286-.3048-.3429-.8559-.3429-1.6532v-1.0761c-.201.0061-.4062.0091-.6154.0091-.3661 0-.7609-.0096-1.1846-.0288v2.2895c0 .4057-.245.779-.6433.8563-.1963.0381-.3917.0605-.5567.0605-.5285 0-.9143-.1524-1.1571-.4573-.2286-.3048-.3429-.8559-.3429-1.6532v-1.4482c-.358-.0711-.6946-.1564-1.0098-.2559-.9267-.3089-1.3901-.8785-1.3901-1.7087V16.315c0-.3669.0965-.6468.2896-.8399.1931-.1931.4634-.3475.8109-.4634.3947-.1277.8279-.2309 1.2994-.3098Zm7.0123 10.7357c.5599.444.8399 1.0522.8399 1.8245 0 .9074-.3379 1.5735-1.0137 1.9983-.6564.4054-1.5735.6081-2.7512.6081-.502 0-1.0136-.0193-1.5349-.0579-.502-.0386-.9364-.1062-1.3033-.2027v-4.8364h3.3884c1.0426 0 1.8342.222 2.3748.6661Zm-2.8381-3.4174H21.149v-4.4889c.309-.0579.6758-.1062 1.1005-.1448.4441-.0386.9075-.0579 1.3902-.0579 2.3554 0 3.5331.7626 3.5331 2.2879 0 .753-.2606 1.3418-.7819 1.7666-.502.4247-1.2743.6371-2.3168.6371Z" fill="#1F78F0"/></g></svg>