<svg xmlns="http://www.w3.org/2000/svg" viewBox="0 0 24 24"><path fill="#91BEFF" d="M16.358 10.57538c.19678-1.33057-.80493-2.0459-2.17468-2.52307l.44433-1.80249-1.0849-.27344-.43255 1.755c-.28522-.0719-.57813-.13971-.8692-.2069l.43567-1.76655-1.08426-.27343-.44464 1.80188c-.23609-.05439-.46784-.10816-.69275-.16468l.00122-.00567-1.4961-.37781-.28863 1.17188s.80493.18658.788.19812c.3137.04037.53799.32351.5055.63812l-1.21741 4.9378c-.06361.20836-.28408.32571-.49244.2621-.00159-.00048-.00317-.00098-.00475-.00148.0108.01593-.78852-.19909-.78852-.19909l-.53857 1.25592 1.41174.356c.26264.06653.52.13623.77344.20185l-.449 1.82312 1.08362.27343.44464-1.80371c.296.08124.58338.15625.86457.22687l-.44312 1.79529 1.08484.27344.449-1.81971c1.84991.35407 3.241.21125 3.82653-1.48089.48088-.95304.09812-2.11545-.85492-2.59633-.04641-.02342-.09375-.04496-.1419-.06456.77353-.16094 1.34203-.8221 1.38524-1.61101zm-2.47879 3.51532c-.3352 1.36249-2.60351.62591-3.33893.44122l.59577-2.41528c.73535.18561 3.09356.5531 2.74316 1.97406zm.33557-3.535c-.30591 1.23931-2.19378.60968-2.80621.45526l.5401-2.19056c.61243.15439 2.58472.44254 2.26611 1.73533v-.00003z"/><path fill="#1F78F0" d="m11.94867 8.82037-.5401 2.19061c.61243.15442 2.50031.784 2.80621-.45526.31861-1.29278-1.65368-1.58093-2.26611-1.73535zm-.81262 3.29627-.59576 2.41528c.73541.18469 3.00372.92126 3.33893-.44122.35039-1.42096-2.00782-1.78845-2.74317-1.97406z"/><path fill="#6563ff" d="M12 2C6.47717 2 2 6.47717 2 12s4.47717 10 10 10 10-4.47717 10-10S17.52283 2 12 2zm4.35797 8.57538c-.04315.78894-.61169 1.45007-1.38519 1.61102.04816.01959.09546.04114.14191.06458.953.48083 1.33575 1.64325.85492 2.59631-.58557 1.69214-1.97662 1.83496-3.82654 1.4809l-.44904 1.8197-1.08484-.27344.44312-1.79529c-.28119-.07062-.56854-.14563-.86456-.22687l-.44465 1.80372-1.08362-.27344.44904-1.82312c-.25348-.06561-.5108-.13531-.77344-.20184l-1.41174-.35602.53857-1.25592s.79932.21503.78851.1991c.00159.00049.00317.00098.0047.00146.20837.0636.42889-.05371.49249-.26208l1.21741-4.93781c.03248-.31464-.19183-.59772-.50549-.63812.01691-.01154-.78802-.19812-.78802-.19812l.28864-1.17188 1.49609.37781-.00122.00567c.22491.05652.45667.11029.69275.16467l.44464-1.80188 1.08429.27344-.43567 1.76654c.29102.0672.58392.13501.8692.20691l.4325-1.755 1.0849.27344-.44427 1.80249c1.36974.47717 2.37145 1.1925 2.17461 2.52307z"/></svg>