<svg viewBox="0 0 24 24" fill="none" xmlns="http://www.w3.org/2000/svg"><path d="M2.28099 4.34251c.08867-.858625.651615-1.53827 1.495885-1.718005C5.1095 2.34081 7.6216 2 12 2c4.3784 0 6.8905.34081 8.22315.624505.84425.179735 1.4072.859385 1.49585 1.718005C21.8505 5.6156 22 7.95305 22 12c0 4.04695-.1495 6.3844-.281 7.6575-.08865.8586-.6516 1.53825-1.4959 1.718C18.8905 21.6592 16.3784 22 12 22c-4.3784 0-6.8905-.3408-8.223125-.6245-.84427-.17975-1.407215-.8594-1.495885-1.718C2.14952 18.3844 2 16.04695 2 12s.14952-6.3844.28099-7.65749Z" fill="#91BEFF"/><path fill-rule="evenodd" clip-rule="evenodd" d="M21.903 7H2.096925c.053005-1.18175.12062-2.043425.184035-2.65749.08867-.858625.651615-1.53827 1.495885-1.718005C5.1095 2.34081 7.62155 2 11.99995 2c4.37845 0 6.8905.34081 8.22315.624505.84425.179735 1.4072.859385 1.4959 1.718005.0634.614065.131 1.47574.184 2.65749Z" fill="#1F78F0"/><path d="M5.5 11c0-.5523.4477-1 1-1h1c.5523 0 1 .4477 1 1v1c0 .5523-.4477 1-1 1h-1c-.5523 0-1-.4477-1-1v-1ZM5.5 16c0-.5523.4477-1 1-1h1c.5523 0 1 .4477 1 1v1c0 .5523-.4477 1-1 1h-1c-.5523 0-1-.4477-1-1v-1ZM10.5 11c0-.5523.4477-1 1-1h1c.5523 0 1 .4477 1 1v1c0 .5523-.4477 1-1 1h-1c-.5523 0-1-.4477-1-1v-1ZM10.5 16c0-.5523.4477-1 1-1h1c.5523 0 1 .4477 1 1v1c0 .5523-.4477 1-1 1h-1c-.5523 0-1-.4477-1-1v-1ZM15.5 11c0-.5523.4477-1 1-1h1c.5523 0 1 .4477 1 1v1c0 .5523-.4477 1-1 1h-1c-.5523 0-1-.4477-1-1v-1Z" fill="#1F78F0"/></svg>