<svg viewBox="0 0 24 24" fill="none" xmlns="http://www.w3.org/2000/svg"><path d="M12.0002 18.7457c-5.12035 1.41685-8.10067.5105-9.33195-.0784-.45968-.2198-.75614-.642-.83951-1.14465C1.683985 16.64985 1.5 14.881 1.5 11.5278c0-2.2179.080495-3.7427.17689-4.7735.09331-.99785 1.181025-1.4325 2.14442-1.1563 1.58614.45475 4.25369.73385 8.17889-.3523 5.12335-1.417705 8.10395-.486085 9.3338.1153.4586.2242.7527.64955.83595 1.1532.14495.87685.33005 2.6509.33005 5.993 0 2.18675-.07925 3.7022-.17465 4.73425-.0933 1.0096-1.2029 1.45165-2.17655 1.1689-1.5896-.4616-4.2481-.74395-8.1486.33535Z" fill="#91BEFF"/><path d="M15 12c0 1.65685-1.34315 3-3 3s-3-1.34315-3-3 1.34315-3 3-3 3 1.34315 3 3Z" fill="#1F78F0"/><path fill-rule="evenodd" clip-rule="evenodd" d="M22.4346 9.3902c-.29985.07175-.6128.1098-.9346.1098-2.20915 0-4-1.7909-4-4 0-.34045.0425-.67092.12255-.98645 1.81645.08155 3.0315.51495 3.7114.84745.45865.22425.75275.64955.836 1.1532.09095.5502.1977 1.45365.26465 2.876Zm.05565 4.3967c-.46055-.18505-.9635-.28685-1.49025-.28685-2.20915 0-4 1.79085-4 4 0 .1693.0105.3362.03095.49995 1.3082.00185 2.34075.1847 3.11785.41035.97365.2828 2.08325-.1593 2.17655-1.1689.07555-.81725.14095-1.9377.1649-3.45455Zm-16.1134 5.70185c.0804-.3162.12315-.64745.12315-.9887 0-2.20915-1.79086-4-4-4-.322625 0-.63633.0382-.93684.1103.06644 1.44695.17388 2.3594.26558 2.9123.08337.5027.379825.92485.839505 1.1447.6803.32535 1.89452.7476 3.708605.8214ZM1.51016 10.2133c.460455.18495.963265.2867 1.48984.2867 2.20915 0 4-1.7909 4-4 0-.16935-.0105-.33625-.03095-.50005-1.32505.003-2.367305-.1782-3.14774-.40195-.963395-.2762-2.05111.15845-2.144425 1.1563-.076035.8131-.142175 1.9335-.166725 3.459Z" fill="#1F78F0"/></svg>