<svg viewBox="0 0 24 24" fill="none" xmlns="http://www.w3.org/2000/svg"><path d="M12 1.5C6.201 1.5 1.5 6.201 1.5 12S6.201 22.5 12 22.5 22.5 17.799 22.5 12 17.799 1.5 12 1.5Z" fill="#91BEFF"/><path d="M11.6775 11.6149c.6339-.55665 1.84815-1.64875 2.99185-2.8219.5347-.5485.72465-1.34795.19715-1.90335-.0433-.04565-.08955-.09225-.13895-.13965-.1315-.12635-.25985-.2318-.38145-.31975-.5251-.37975-1.2053-.22435-1.71675.1736-1.9226 1.49595-3.33095 3.05695-4.1803 4.11285-.6108.7594-.6108 1.8072 0 2.5666.84935 1.0559 2.2577 2.6169 4.1803 4.11285.51145.39795 1.19165.55335 1.71675.1736.1216-.08795.24995-.1934.38145-.31975.0494-.0474.09565-.094.13895-.13965.5275-.5554.33755-1.35485-.19715-1.90335-1.1437-1.17315-2.35795-2.2652-2.99185-2.8219-.2319-.20365-.2319-.56655 0-.7702Z" fill="#1F78F0"/></svg>