<svg viewBox="0 0 24 24" fill="none" xmlns="http://www.w3.org/2000/svg"><path d="M1.5 12C1.5 6.201 6.201 1.5 12 1.5S22.5 6.201 22.5 12 17.799 22.5 12 22.5 1.5 17.799 1.5 12Z" fill="#91BEFF"/><path d="M11.6149 11.6775c-.55665.6339-1.64875 1.84815-2.8219 2.99185-.5485.5347-1.34795.72465-1.90335.19715-.04565-.0433-.09225-.08955-.13965-.13895-.12635-.1315-.2318-.25985-.31975-.38145-.37975-.5251-.22435-1.2053.1736-1.71675 1.49595-1.9226 3.05695-3.33095 4.11285-4.1803.7594-.6108 1.8072-.6108 2.5666 0 1.0559.84935 2.6169 2.2577 4.11285 4.1803.39795.51145.55335 1.19165.1736 1.71675-.08795.1216-.1934.24995-.31975.38145-.0474.0494-.094.09565-.13965.13895-.5554.5275-1.35485.33755-1.90335-.19715-1.17315-1.1437-2.2652-2.35795-2.8219-2.99185-.20365-.2319-.56655-.2319-.7702 0Z" fill="#1F78F0"/></svg>