<svg xmlns="http://www.w3.org/2000/svg" fill="none" viewBox="0 0 24 24"><g transform="scale(.5)"><path fill="#1F78F0" d="M40 22H8s.64741-6.84 2.4947-13.70964c.5843-2.17287 2.4605-3.71122 4.702-3.90656C17.4129 4.19068 20.4899 4 24 4c3.5101 0 6.5871.19068 8.8033.3838 2.2415.19534 4.1177 1.73369 4.702 3.90655C39.3526 15.16 40 22 40 22Z"/><path fill="#91BEFF" fill-rule="evenodd" d="M39.9807 21.8085C36.8336 21.9056 31.7743 22 24 22s-12.8336-.0944-15.98074-.1915c.08061-.7775.42086-3.8383 1.14511-7.6497C12.3483 14.0742 17.1069 14 24 14c6.8931 0 11.6517.0742 14.8356.1588.7243 3.8114 1.0645 6.8722 1.1451 7.6497Z" clip-rule="evenodd"/><path fill="#1F78F0" d="M3.04951 22.0629c.11016 1.0888 1.06378 1.674 2.15738 1.713C7.70036 23.8648 13.2588 24 24 24s16.2996-.1352 18.7931-.2241c1.0936-.039 2.0472-.6242 2.1574-1.713C44.981 21.7611 45 21.409 45 21c0-.409-.019-.7611-.0495-1.0629-.1102-1.0888-1.0638-1.674-2.1574-1.713C40.2996 18.1352 34.7412 18 24 18s-16.29963.1352-18.79311.2241c-1.0936.039-2.04722.6242-2.15738 1.713C3.01896 20.2389 3 20.591 3 21c0 .409.01896.7611.04951 1.0629Z"/><circle cx="14" cy="34" r="8" fill="#1F78F0"/><circle cx="14" cy="34" r="5" fill="#91BEFF"/><circle cx="34" cy="34" r="8" fill="#1F78F0" transform="rotate(90 34 34)"/><circle cx="34" cy="34" r="5" fill="#91BEFF" transform="rotate(90 34 34)"/><path fill="#1F78F0" fill-rule="evenodd" d="M20 31.0703V35h.6458c.824-.9206 2.0215-1.5 3.3542-1.5s2.5302.5794 3.3542 1.5H28v-3.9297C26.8233 30.3896 25.4571 30 24 30s-2.8233.3896-4 1.0703Z" clip-rule="evenodd"/></g></svg>