<svg viewBox="0 0 24 24" fill="none" xmlns="http://www.w3.org/2000/svg"><path d="M21 12.5c0 5.2467-4.2533 9.5-9.5 9.5S2 17.7467 2 12.5 6.2533 3 11.5 3 21 7.2533 21 12.5Z" fill="#91BEFF"/><path d="M22.9397 12.2456c-.57995-5.907-5.2783-10.60532-11.18525-11.185305-.75395-.074025-1.39385.393005-1.4992 1.143195C10.12685 3.118095 10 4.67162 10 7.24c0 3.1967.1965 4.82125.34795 5.59855.0827.42475.38875.7308.81355.81355.77725.1514 2.40185.3479 5.5985.3479 2.5684 0 4.1219-.12685 5.0365-.25525.7502-.1053 1.21725-.74525 1.1432-1.49915Z" fill="#1F78F0"/></svg>