<svg xmlns="http://www.w3.org/2000/svg" fill="none" viewBox="0 0 24 24"><path fill="#1F78F0" d="M11.75 4.500025c-4.86575-.941775-7.85916.28448-9.413275 1.327625-.84436.56675-.778425 1.6998-.03921 2.3982L5.0776 10.8523 11.75 4.500025ZM20.0568 12.25c.60385 4.9618-.8185 7.9766-1.92005 9.50365-.57195.7928-1.65505.7517-2.3623.0768l-3.0472-2.90805L20.0568 12.25ZM9.2954 17.63635c0-1.73095-1.20085-2.9318-2.9318-2.9318-1.730975 0-2.931825 1.20085-2.931825 2.9318 0 1.2547.10958 1.96145.194755 2.3213.049835.21055.205185.3659.41574.41575.359855.0852 1.06663.19475 2.32133.19475 1.73095 0 2.9318-1.20085 2.9318-2.9318Z"/><path fill="#91BEFF" d="M14.0478 19.99525c-.4896.3919-1.11.47-1.64345.14025-.80895-.50005-2.25305-1.58645-4.60325-3.93665-2.35015-2.35015-3.436565-3.79425-3.93659-4.60315-.32975-.5335-.25166-1.1539.14023-1.64355C4.56975 9.2462 5.676 7.9831 7.8011 5.85795 11.65905 2 18.71585 1.99998 20.35795 3.64205 22.00005 5.2841 22 12.3409 18.14205 16.19885c-2.1252 2.1252-3.3883 3.2314-4.09425 3.7964Z"/><path fill="#1F78F0" d="M13 7.5c-1.933 0-3.5 1.567-3.5 3.5s1.567 3.5 3.5 3.5 3.5-1.567 3.5-3.5-1.567-3.5-3.5-3.5Z"/></svg>