<svg viewBox="0 0 24 24" fill="none" xmlns="http://www.w3.org/2000/svg"><path fill-rule="evenodd" clip-rule="evenodd" d="M10.15565 1.88766c-.109.065535-.1813.171945-.2296.289625C9.73065 2.65296 9.20205 3.98977 9 5h6c-.20205-1.01023-.73065-2.34704-.92605-2.822715-.0483-.11768-.1206-.22409-.2296-.28962C13.599 1.740235 13.03975 1.5 12 1.5s-1.599.240235-1.84435.38766Zm0 20.22469c-.109-.06555-.1813-.17195-.2296-.28965C9.73065 21.34705 9.20205 20.01025 9 19h6c-.20205 1.01025-.73065 2.34705-.92605 2.8227-.0483.1177-.1206.2241-.2296.28965-.24535.1474-.8046.38765-1.84435.38765s-1.599-.24025-1.84435-.38765ZM2.3203 8.541c.00223.1272.058255.243.136005.3437.31426.407 1.20766 1.53325 1.98152 2.2133L7.43785 5.90185c-.97595-.3301-2.39795-.5407-2.907585-.60935-.12608-.017-.254365-.00765-.365635.05405-.25034.13875-.73802.50295-1.25789 1.4034-.51987.90045-.591455 1.5049-.58644 1.79105Zm17.5151 10.11235c-.1113.06165-.2396.07105-.36565.05405-.50965-.06865-1.93165-.27925-2.90755-.6094l3-5.19615c.77385.6801 1.66725 1.8063 1.9815 2.21335.07775.1007.1338.2165.136.3437.00505.28615-.06655.8906-.58645 1.79105-.51985.90045-1.00755 1.26465-1.25785 1.4034ZM4.16463 18.65335c.11127.06165.239555.07105.365635.05405.509635-.06865 1.931635-.27925 2.907585-.6094l-3.000025-5.19615c-.77386.6801-1.66726 1.8063-1.98152 2.21335-.07775.1007-.133775.2165-.136005.3437-.005015.28615.06657.8906.58644 1.79105.519865.90045 1.00755 1.26465 1.25789 1.4034ZM21.6797 8.541c-.0022.1272-.05825.243-.136.3437-.31425.407-1.20765 1.53325-1.9815 2.2133l-3-5.19615c.9759-.3301 2.3979-.5407 2.90755-.60935.12605-.017.25435-.00765.36565.05405.2503.13875.738.50295 1.25785 1.4034.5199.90045.5915 1.5049.58645 1.79105Z" fill="#91BEFF"/><path d="M20 12c0 4.4183-3.5817 8-8 8s-8-3.5817-8-8 3.5817-8 8-8 8 3.5817 8 8Z" fill="#91BEFF"/><path d="M16 12c0 2.20915-1.79085 4-4 4s-4-1.79085-4-4 1.79085-4 4-4 4 1.79085 4 4Z" fill="#1F78F0"/></svg>