<svg viewBox="0 0 24 24" fill="none" xmlns="http://www.w3.org/2000/svg"><g fill-rule="evenodd" clip-rule="evenodd"><path d="M2.05979 12.71685c-.215625-.45355-.215625-.98015 0-1.4337C3.82576 7.5682 7.61295 5 12 5s8.17425 2.5682 9.9402 6.28315c.21565.45355.21565.98015 0 1.4337C20.17425 16.4318 16.38705 19 12 19c-4.38705 0-8.17424-2.5682-9.94021-6.28315Z" fill="#91BEFF"/><path d="M12 16.5c2.4853 0 4.5-2.0147 4.5-4.5 0-.66085-.14245-1.28845-.3983-1.8537-.0472-.1042-.20405-.0887-.25445.01395C15.603 10.65765 15.0915 11 14.5 11c-.82845 0-1.5-.67155-1.5-1.5 0-.5915.34235-1.103.83975-1.34725.10265-.0504.11815-.20725.01395-.2544C13.28845 7.64245 12.66085 7.5 12 7.5c-2.4853 0-4.5 2.0147-4.5 4.5s2.0147 4.5 4.5 4.5Z" fill="#1F78F0"/></g></svg>