<svg viewBox="0 0 24 24" fill="none" xmlns="http://www.w3.org/2000/svg"><path fill-rule="evenodd" clip-rule="evenodd" d="M2.059665 12.71685c-.21562-.45355-.21562-.98015 0-1.4337C3.82564 7.5682 7.61285 5 11.9999 5c4.387 0 8.1742 2.5682 9.9402 6.28315.2156.45355.2156.98015 0 1.4337C20.1741 16.4318 16.3869 19 11.9999 19c-4.38705 0-8.17426-2.5682-9.940235-6.28315Z" fill="#91BEFF"/><path fill-rule="evenodd" clip-rule="evenodd" d="M12 16.5c2.4853 0 4.5-2.0147 4.5-4.5 0-.66085-.14245-1.28845-.3983-1.8537-.0472-.1042-.20405-.0887-.25445.01395C15.603 10.65765 15.0915 11 14.5 11c-.82845 0-1.5-.67155-1.5-1.5 0-.5915.34235-1.103.83975-1.34725.10265-.0504.11815-.20725.01395-.2544C13.28845 7.64245 12.66085 7.5 12 7.5c-2.4853 0-4.5 2.0147-4.5 4.5s2.0147 4.5 4.5 4.5Z" fill="#91BEFF"/><path d="M3.34794 18.76115c-.265195.27085-.447125.62515-.30935.9783.1024.26245.30476.6039.698845.998.39409.3941.73554.59645.99799.69885.353125.13775.707425-.04415.978275-.30935 1.30955-1.2822 5.42585-5.31675 7.74645-7.63735 2.3206-2.3206 6.35515-6.43695 7.63735-7.74645.2652-.27085.4471-.62515.30935-.978285-.1024-.262455-.30475-.6039-.69885-.99799-.3941-.39409-.73555-.59645-.998-.698845-.3531-.13778-.70745.04415-.9783.309345C17.4222 4.65958 13.3059 8.6941 10.9853 11.0147c-2.32065 2.32065-6.355155 6.43695-7.63736 7.74645Z" fill="#1F78F0"/></svg>