<svg viewBox="0 0 24 24" fill="none" xmlns="http://www.w3.org/2000/svg"><g transform="scale(.5)"><circle cx="24" cy="24" r="20" fill="#91BEFF"/><circle cx="24" cy="24" r="7" fill="#1F78F0"/><path d="M22.0039 10.9407c.0157-1.10385.7689-1.93404 1.8729-1.94035C23.917 9.00012 23.9581 9 24 9c.0419 0 .083.00012.1232.00035 1.104.00631 1.8572.8365 1.8729 1.94035.0025.1727.0039.359.0039.5593 0 .2003-.0014.3866-.0039.5593-.0157 1.1039-.7689 1.934-1.8729 1.9404C24.083 13.9999 24.0419 14 24 14c-.0419 0-.083-.0001-.1232-.0003-1.104-.0064-1.8572-.8365-1.8729-1.9404-.0025-.1727-.0039-.359-.0039-.5593 0-.2003.0014-.3866.0039-.5593ZM22.0039 37.0593c.0157 1.1039.7689 1.934 1.8729 1.9404.0402.0002.0813.0003.1232.0003.0419 0 .083-.0001.1232-.0003 1.104-.0064 1.8572-.8365 1.8729-1.9404.0025-.1727.0039-.359.0039-.5593 0-.2003-.0014-.3866-.0039-.5593-.0157-1.1039-.7689-1.934-1.8729-1.9404C24.083 34.0001 24.0419 34 24 34c-.0419 0-.083.0001-.1232.0003-1.104.0064-1.8572.8365-1.8729 1.9404-.0025.1727-.0039.359-.0039.5593 0 .2003.0014.3866.0039.5593ZM10.9407 25.9961c-1.10385-.0157-1.93404-.7689-1.94035-1.8729C9.00012 24.083 9 24.0419 9 24c0-.0419.00012-.083.00035-.1232.00631-1.104.8365-1.8572 1.94035-1.8729.1727-.0025.359-.0039.5593-.0039.2003 0 .3866.0014.5593.0039 1.1039.0157 1.934.7689 1.9404 1.8729.0002.0402.0003.0813.0003.1232 0 .0419-.0001.083-.0003.1232-.0064 1.104-.8365 1.8572-1.9404 1.8729-.1727.0025-.359.0039-.5593.0039-.2003 0-.3866-.0014-.5593-.0039ZM37.0593 25.9961c1.1039-.0157 1.934-.7689 1.9404-1.8729C38.9999 24.083 39 24.0419 39 24c0-.0419-.0001-.083-.0003-.1232-.0064-1.104-.8365-1.8572-1.9404-1.8729-.1727-.0025-.359-.0039-.5593-.0039-.2003 0-.3866.0014-.5593.0039-1.1039.0157-1.934.7689-1.9404 1.8729C34.0001 23.917 34 23.9581 34 24c0 .0419.0001.083.0003.1232.0064 1.104.8365 1.8572 1.9404 1.8729.1727.0025.359.0039.5593.0039.2003 0 .3866-.0014.5593-.0039ZM13.354 16.1771c-.7694-.7916-.8238-1.9112-.0477-2.6963.0283-.0286.0573-.0577.0869-.0874.0297-.0296.0588-.0586.0874-.0869.7851-.7761 1.9047-.7217 2.6964.0477.1238.1204.2566.2511.3982.3928.1416.1416.2724.2743.3928.3982.7693.7917.8238 1.9113.0477 2.6963-.0283.0287-.0573.0578-.0869.0874-.0297.0297-.0588.0587-.0874.0869-.7851.7762-1.9047.7217-2.6964-.0477-.1239-.1203-.2566-.2511-.3982-.3927-.1417-.1417-.2724-.2744-.3928-.3983ZM31.8229 34.6459c.7916.7693 1.9112.8238 2.6963.0477.0286-.0283.0577-.0573.0874-.0869.0296-.0297.0586-.0588.0869-.0874.7761-.7851.7217-1.9047-.0477-2.6964-.1204-.1239-.2511-.2566-.3928-.3982-.1416-.1417-.2743-.2724-.3982-.3928-.7917-.7694-1.9113-.8238-2.6963-.0477-.0287.0283-.0578.0573-.0874.0869-.0297.0297-.0587.0588-.0869.0874-.7762.7851-.7217 1.9047.0477 2.6964.1203.1238.2511.2566.3927.3982.1417.1416.2744.2724.3983.3928ZM16.1771 34.6458c-.7916.7694-1.9112.8238-2.6963.0477-.0286-.0283-.0577-.0572-.0874-.0869-.0296-.0297-.0586-.0588-.0869-.0874-.7761-.7851-.7217-1.9047.0477-2.6963.1204-.1239.2511-.2566.3928-.3983.1416-.1416.2743-.2724.3982-.3927.7917-.7694 1.9113-.8239 2.6963-.0477.0287.0283.0578.0572.0874.0869.0297.0296.0587.0587.0869.0874.7762.785.7217 1.9046-.0477 2.6963-.1203.1239-.2511.2566-.3927.3982-.1417.1417-.2744.2724-.3983.3928ZM34.646 16.1771c.7694-.7917.8238-1.9113.0477-2.6964-.0283-.0286-.0573-.0577-.0869-.0874-.0297-.0296-.0588-.0586-.0874-.0869-.7851-.7761-1.9047-.7216-2.6964.0477-.1238.1204-.2566.2512-.3982.3928s-.2724.2744-.3928.3982c-.7693.7917-.8238 1.9113-.0477 2.6964.0283.0286.0573.0577.0869.0874.0297.0296.0588.0586.0874.0869.7851.7761 1.9047.7217 2.6964-.0477.1239-.1204.2566-.2511.3982-.3928.1417-.1416.2724-.2743.3928-.3982Z" fill="#1F78F0"/></g></svg>