<svg viewBox="0 0 24 24" fill="none" xmlns="http://www.w3.org/2000/svg"><g transform="scale(.5)"><circle r="21" transform="matrix(-1 0 0 1 24 24)" fill="#91BEFF"/><path d="M11 24c0-1.7205 1.1011-2.9868 2.8216-2.9994.0583-.0004.1177-.0006.1784-.0006.0607 0 .1201.0002.1784.0006C15.8989 21.0132 17 22.2795 17 24c0 1.7205-1.1011 2.9868-2.8216 2.9994-.0583.0004-.1177.0006-.1784.0006-.0607 0-.1201-.0002-.1784-.0006C12.1011 26.9868 11 25.7205 11 24ZM21 24c0-1.7205 1.1011-2.9868 2.8216-2.9994.0583-.0004.1177-.0006.1784-.0006.0607 0 .1201.0002.1784.0006C25.8989 21.0132 27 22.2795 27 24c0 1.7205-1.1011 2.9868-2.8216 2.9994-.0583.0004-.1177.0006-.1784.0006-.0607 0-.1201-.0002-.1784-.0006C22.1011 26.9868 21 25.7205 21 24ZM31 24c0-1.7205 1.1011-2.9868 2.8216-2.9994.0583-.0004.1177-.0006.1784-.0006.0607 0 .1201.0002.1784.0006C35.8989 21.0132 37 22.2795 37 24c0 1.7205-1.1011 2.9868-2.8216 2.9994-.0583.0004-.1177.0006-.1784.0006-.0607 0-.1201-.0002-.1784-.0006C32.1011 26.9868 31 25.7205 31 24Z" fill="#1F78F0"/></g></svg>