<svg viewBox="0 0 24 24" fill="none" xmlns="http://www.w3.org/2000/svg"><g transform="scale(.5)"><path d="M4 13c0-5.23328 3.88449-8.5756 9.113-8.79894C15.8492 4.08419 19.4124 4 24 4s8.1508.08419 10.887.20106C40.1155 4.4244 44 7.76672 44 13c0 5.2333-3.8845 8.5756-9.113 8.7989C32.1508 21.9158 28.5876 22 24 22s-8.1508-.0842-10.887-.2011C7.88449 21.5756 4 18.2333 4 13Z" fill="#1F78F0"/><circle cx="35" cy="13" r="5" fill="#91BEFF"/><path d="M44 35c0-5.2333-3.8845-8.5756-9.113-8.7989C32.1508 26.0842 28.5876 26 24 26s-8.1508.0842-10.887.2011C7.88449 26.4244 4 29.7667 4 35s3.88449 8.5756 9.113 8.7989C15.8492 43.9158 19.4124 44 24 44s8.1508-.0842 10.887-.2011C40.1155 43.5756 44 40.2333 44 35Z" fill="#91BEFF"/><circle r="5" transform="matrix(-1 0 0 1 13 35)" fill="#1F78F0"/></g></svg>